<svg width="138" height="25" viewBox="0 0 138 25" fill="none" xmlns="http://www.w3.org/2000/svg">
<g id="Wordmark/Nav">
<path id="Leverage" d="M11.78 19H0.8V5.6H3.8V16.3H11.78V19ZM18.3115 19.2C16.5782 19.2 15.2048 18.7667 14.1915 17.9C13.1915 17.02 12.6915 15.72 12.6915 14C12.6915 12.4133 13.1982 11.1467 14.2115 10.2C15.2382 9.25333 16.5848 8.78 18.2515 8.78C19.9182 8.78 21.2448 9.20667 22.2315 10.06C23.2182 10.9 23.7115 12.0933 23.7115 13.64C23.7115 13.8267 23.6848 14.1467 23.6315 14.6H15.4715C15.5115 15.3867 15.7382 15.9533 16.1515 16.3C16.5648 16.6333 17.2515 16.8 18.2115 16.8C19.0782 16.8 19.6915 16.6933 20.0515 16.48C20.4248 16.2533 20.6115 15.92 20.6115 15.48V15.28H23.6115V15.5C23.6115 16.5933 23.1248 17.4867 22.1515 18.18C21.1782 18.86 19.8982 19.2 18.3115 19.2ZM20.1315 11.58C19.7182 11.2733 19.0715 11.12 18.1915 11.12C17.3115 11.12 16.6582 11.2733 16.2315 11.58C15.8182 11.8867 15.5782 12.3667 15.5115 13.02H20.8315C20.7915 12.3533 20.5582 11.8733 20.1315 11.58ZM32.4477 19H28.7477L24.1877 8.98H27.5277L30.5277 16.08H30.7277L33.7477 8.98H37.0277L32.4477 19ZM43.1437 19.2C41.4104 19.2 40.0371 18.7667 39.0237 17.9C38.0237 17.02 37.5237 15.72 37.5237 14C37.5237 12.4133 38.0304 11.1467 39.0437 10.2C40.0704 9.25333 41.4171 8.78 43.0837 8.78C44.7504 8.78 46.0771 9.20667 47.0637 10.06C48.0504 10.9 48.5437 12.0933 48.5437 13.64C48.5437 13.8267 48.5171 14.1467 48.4637 14.6H40.3037C40.3437 15.3867 40.5704 15.9533 40.9837 16.3C41.3971 16.6333 42.0837 16.8 43.0437 16.8C43.9104 16.8 44.5237 16.6933 44.8837 16.48C45.2571 16.2533 45.4437 15.92 45.4437 15.48V15.28H48.4437V15.5C48.4437 16.5933 47.9571 17.4867 46.9837 18.18C46.0104 18.86 44.7304 19.2 43.1437 19.2ZM44.9637 11.58C44.5504 11.2733 43.9037 11.12 43.0237 11.12C42.1437 11.12 41.4904 11.2733 41.0637 11.58C40.6504 11.8867 40.4104 12.3667 40.3437 13.02H45.6637C45.6237 12.3533 45.3904 11.8733 44.9637 11.58ZM52.8199 19H49.8199V8.98H52.5999V11.64H52.7799C52.9266 10.7733 53.2799 10.08 53.8399 9.56C54.4132 9.04 55.1799 8.78 56.1399 8.78C57.2066 8.78 57.9999 9.1 58.5199 9.74C59.0399 10.38 59.2999 11.2267 59.2999 12.28V13.94H56.2999V12.9C56.2999 12.34 56.1732 11.94 55.9199 11.7C55.6666 11.4467 55.2399 11.32 54.6399 11.32C53.9866 11.32 53.5199 11.4733 53.2399 11.78C52.9599 12.0867 52.8199 12.56 52.8199 13.2V19ZM63.4703 19.2C62.3903 19.2 61.5436 18.9667 60.9303 18.5C60.317 18.02 60.0103 17.36 60.0103 16.52C60.0103 15 61.0903 14.1267 63.2503 13.9L67.5503 13.46V13.08C67.5503 12.44 67.3903 12.0067 67.0703 11.78C66.7503 11.54 66.1836 11.42 65.3703 11.42C64.597 11.42 64.0436 11.54 63.7103 11.78C63.3903 12.0067 63.2303 12.4 63.2303 12.96V13.04H60.2103V12.98C60.2103 11.7267 60.697 10.7133 61.6703 9.94C62.6436 9.16667 63.9503 8.78 65.5903 8.78C67.217 8.78 68.4436 9.16667 69.2703 9.94C70.097 10.7133 70.5103 11.7733 70.5103 13.12V19H67.7103V16.7H67.5503C67.3103 17.4867 66.8436 18.1 66.1503 18.54C65.457 18.98 64.5636 19.2 63.4703 19.2ZM63.0303 16.32C63.0303 16.8267 63.4636 17.08 64.3303 17.08C65.3836 17.08 66.1703 16.94 66.6903 16.66C67.2236 16.3667 67.5103 15.8733 67.5503 15.18L64.0703 15.58C63.377 15.6333 63.0303 15.88 63.0303 16.32ZM76.4349 17.98C74.9549 17.98 73.8016 17.5733 72.9749 16.76C72.1483 15.9333 71.7349 14.8067 71.7349 13.38C71.7349 11.9667 72.1616 10.8467 73.0149 10.02C73.8816 9.19333 75.0616 8.78 76.5549 8.78C77.5949 8.78 78.4483 9.00667 79.1149 9.46C79.7949 9.9 80.2149 10.5467 80.3749 11.4H80.5349V8.98H83.3349V17.54C83.3349 20.9133 81.4349 22.6 77.6349 22.6C75.9949 22.6 74.7016 22.2533 73.7549 21.56C72.8216 20.8667 72.3549 19.8933 72.3549 18.64H75.3549C75.3549 19.2133 75.5149 19.6 75.8349 19.8C76.1683 20 76.8349 20.1 77.8349 20.1C78.8216 20.1 79.4816 19.9467 79.8149 19.64C80.1616 19.3333 80.3349 18.7 80.3349 17.74V15.48H80.1749C80.0016 16.2533 79.6016 16.8667 78.9749 17.32C78.3616 17.76 77.5149 17.98 76.4349 17.98ZM75.3949 11.84C74.9683 12.1333 74.7549 12.6467 74.7549 13.38C74.7549 14.1133 74.9683 14.6333 75.3949 14.94C75.8216 15.2467 76.5149 15.4 77.4749 15.4C78.4483 15.4 79.1683 15.2533 79.6349 14.96C80.1016 14.6533 80.3349 14.16 80.3349 13.48V13.26C80.3349 12.5933 80.1016 12.1133 79.6349 11.82C79.1816 11.5267 78.4749 11.38 77.5149 11.38C76.5416 11.38 75.8349 11.5333 75.3949 11.84ZM90.2496 19.2C88.5162 19.2 87.1429 18.7667 86.1296 17.9C85.1296 17.02 84.6296 15.72 84.6296 14C84.6296 12.4133 85.1362 11.1467 86.1496 10.2C87.1762 9.25333 88.5229 8.78 90.1896 8.78C91.8562 8.78 93.1829 9.20667 94.1696 10.06C95.1562 10.9 95.6496 12.0933 95.6496 13.64C95.6496 13.8267 95.6229 14.1467 95.5696 14.6H87.4096C87.4496 15.3867 87.6762 15.9533 88.0896 16.3C88.5029 16.6333 89.1896 16.8 90.1496 16.8C91.0162 16.8 91.6296 16.6933 91.9896 16.48C92.3629 16.2533 92.5496 15.92 92.5496 15.48V15.28H95.5496V15.5C95.5496 16.5933 95.0629 17.4867 94.0896 18.18C93.1162 18.86 91.8362 19.2 90.2496 19.2ZM92.0696 11.58C91.6562 11.2733 91.0096 11.12 90.1296 11.12C89.2496 11.12 88.5962 11.2733 88.1696 11.58C87.7562 11.8867 87.5162 12.3667 87.4496 13.02H92.7696C92.7296 12.3533 92.4962 11.8733 92.0696 11.58Z" fill="#FAF9F6"/>
<path id="BLK" d="M106.16 19H97.74V5.6H105.78C107.153 5.6 108.2 5.88 108.92 6.44C109.64 7 110 7.80667 110 8.86C110 10.7267 108.96 11.7333 106.88 11.88V12.06C108.093 12.1533 109.007 12.4867 109.62 13.06C110.247 13.62 110.56 14.36 110.56 15.28C110.56 16.4533 110.193 17.3667 109.46 18.02C108.727 18.6733 107.627 19 106.16 19ZM100.74 8.3V10.92H105.44C105.987 10.92 106.38 10.82 106.62 10.62C106.873 10.4067 107 10.0733 107 9.62C107 9.15333 106.873 8.82 106.62 8.62C106.367 8.40667 105.96 8.3 105.4 8.3H100.74ZM100.74 13.4V16.3H105.8C106.413 16.3 106.853 16.1933 107.12 15.98C107.387 15.7533 107.52 15.3733 107.52 14.84C107.52 14.32 107.387 13.9533 107.12 13.74C106.853 13.5133 106.413 13.4 105.8 13.4H100.74ZM122.651 19H111.671V5.6H114.671V16.3H122.651V19ZM126.863 19H123.863V5.6H126.863V10.92H130.203L133.763 5.6H137.363L132.703 12.2L137.303 19H133.703L130.243 13.84H126.863V19Z" fill="#C9A84C"/>
</g>
</svg>
